<svg width="28" height="28" viewBox="0 0 28 28" fill="none" xmlns="http://www.w3.org/2000/svg">
<path d="M11.44 12.4801C11.5067 12.0401 11.6533 11.6534 11.84 11.3201C12.0267 10.9867 12.2933 10.7067 12.6267 10.4934C12.9467 10.2934 13.3467 10.2001 13.84 10.1867C14.1467 10.2001 14.4267 10.2534 14.68 10.3601C14.9467 10.4801 15.1867 10.6401 15.3733 10.8401C15.56 11.0401 15.7067 11.2801 15.8267 11.5467C15.9467 11.8134 16 12.1067 16.0133 12.4001H18.4C18.3733 11.7734 18.2533 11.2001 18.0267 10.6801C17.8 10.1601 17.4933 9.70675 17.0933 9.33341C16.6933 8.96008 16.2133 8.66675 15.6533 8.45341C15.0933 8.24008 14.48 8.14675 13.8 8.14675C12.9333 8.14675 12.1733 8.29341 11.5333 8.60008C10.8933 8.90675 10.36 9.30675 9.93332 9.82675C9.50666 10.3467 9.18666 10.9467 8.98666 11.6401C8.78666 12.3334 8.66666 13.0534 8.66666 13.8267V14.1867C8.66666 14.9601 8.77332 15.6801 8.97332 16.3734C9.17332 17.0667 9.49332 17.6667 9.91999 18.1734C10.3467 18.6801 10.88 19.0934 11.52 19.3867C12.16 19.6801 12.92 19.8401 13.7867 19.8401C14.4133 19.8401 15 19.7334 15.5467 19.5334C16.0933 19.3334 16.5733 19.0534 16.9867 18.6934C17.4 18.3334 17.7333 17.9201 17.9733 17.4401C18.2133 16.9601 18.36 16.4534 18.3733 15.9067H15.9867C15.9733 16.1867 15.9067 16.4401 15.7867 16.6801C15.6667 16.9201 15.5067 17.1201 15.3067 17.2934C15.1067 17.4667 14.88 17.6001 14.6133 17.6934C14.36 17.7867 14.0933 17.8134 13.8133 17.8267C13.3333 17.8134 12.9333 17.7201 12.6267 17.5201C12.2933 17.3067 12.0267 17.0267 11.84 16.6934C11.6533 16.3601 11.5067 15.9601 11.44 15.5201C11.3733 15.0801 11.3333 14.6267 11.3333 14.1867V13.8267C11.3333 13.3601 11.3733 12.9201 11.44 12.4801ZM14 0.666748C6.63999 0.666748 0.666656 6.64008 0.666656 14.0001C0.666656 21.3601 6.63999 27.3334 14 27.3334C21.36 27.3334 27.3333 21.3601 27.3333 14.0001C27.3333 6.64008 21.36 0.666748 14 0.666748ZM14 24.6667C8.11999 24.6667 3.33332 19.8801 3.33332 14.0001C3.33332 8.12008 8.11999 3.33341 14 3.33341C19.88 3.33341 24.6667 8.12008 24.6667 14.0001C24.6667 19.8801 19.88 24.6667 14 24.6667Z" fill="#00BBDE"/>
</svg>
