<svg width="16" height="16" viewBox="0 0 16 16" fill="none" xmlns="http://www.w3.org/2000/svg">
<g clip-path="url(#clip0_3489_1880)">
<path d="M7.99999 15.4668C7.01946 15.4668 6.04852 15.2736 5.14262 14.8984C4.23672 14.5232 3.41361 13.9732 2.72026 13.2798C2.02692 12.5865 1.47693 11.7634 1.10169 10.8575C0.726456 9.95159 0.533325 8.98065 0.533325 8.00011C0.533325 7.01958 0.726456 6.04864 1.10169 5.14274C1.47693 4.23685 2.02692 3.41373 2.72026 2.72038C3.41361 2.02704 4.23672 1.47705 5.14262 1.10181C6.04852 0.726578 7.01946 0.533447 7.99999 0.533447C9.98028 0.533447 11.8795 1.32011 13.2797 2.72038C14.68 4.12066 15.4667 6.01983 15.4667 8.00011C15.4667 9.9804 14.68 11.8796 13.2797 13.2798C11.8795 14.6801 9.98028 15.4668 7.99999 15.4668ZM7.99999 15.4668V6.93345C7.99999 6.36765 8.22475 5.82503 8.62483 5.42495C9.02491 5.02488 9.56753 4.80011 10.1333 4.80011H10.6667M5.33333 9.06678H10.6667" stroke="white" stroke-width="1.06667"/>
</g>
<defs>
<clipPath id="clip0_3489_1880">
<rect width="16" height="16" fill="white"/>
</clipPath>
</defs>
</svg>
