<svg width="17" height="17" viewBox="0 0 17 17" fill="none" xmlns="http://www.w3.org/2000/svg">
<g clip-path="url(#clip0_3489_1889)">
<path d="M12.5472 4.42477C12.4667 4.42477 12.3895 4.39279 12.3326 4.33586C12.2756 4.27893 12.2437 4.20171 12.2437 4.1212C12.2437 4.04069 12.2756 3.96347 12.3326 3.90654C12.3895 3.84961 12.4667 3.81763 12.5472 3.81763M12.5472 4.42477C12.6277 4.42477 12.705 4.39279 12.7619 4.33586C12.8188 4.27893 12.8508 4.20171 12.8508 4.1212C12.8508 4.04069 12.8188 3.96347 12.7619 3.90654C12.705 3.84961 12.6277 3.81763 12.5472 3.81763" stroke="white" stroke-width="1.14286" stroke-linecap="round" stroke-linejoin="round"/>
<path d="M1.04186 4.16611C1.04186 3.33747 1.37104 2.54278 1.95697 1.95685C2.5429 1.37092 3.33759 1.04175 4.16622 1.04175H12.4986C12.9089 1.04175 13.3152 1.12256 13.6943 1.27958C14.0734 1.43659 14.4178 1.66673 14.7079 1.95685C14.998 2.24697 15.2282 2.5914 15.3852 2.97047C15.5422 3.34953 15.623 3.75581 15.623 4.16611V12.4985C15.623 13.3272 15.2938 14.1219 14.7079 14.7078C14.122 15.2937 13.3273 15.6229 12.4986 15.6229H4.16501C3.33638 15.6229 2.54168 15.2937 1.95575 14.7078C1.36982 14.1219 1.04065 13.3272 1.04065 12.4985V4.16489L1.04186 4.16611Z" stroke="white" stroke-width="1.14286" stroke-linecap="round" stroke-linejoin="round"/>
<path d="M5.23601 8.33227C5.23601 8.7389 5.3161 9.14154 5.47171 9.51722C5.62732 9.8929 5.8554 10.2342 6.14293 10.5218C6.43046 10.8093 6.77181 11.0374 7.14748 11.193C7.52316 11.3486 7.92581 11.4287 8.33244 11.4287C8.73907 11.4287 9.14171 11.3486 9.51739 11.193C9.89306 11.0374 10.2344 10.8093 10.5219 10.5218C10.8095 10.2342 11.0376 9.8929 11.1932 9.51722C11.3488 9.14154 11.4289 8.7389 11.4289 8.33227C11.4289 7.51104 11.1026 6.72346 10.5219 6.14276C9.94125 5.56207 9.15366 5.23584 8.33244 5.23584C7.51121 5.23584 6.72362 5.56207 6.14293 6.14276C5.56224 6.72346 5.23601 7.51104 5.23601 8.33227Z" stroke="white" stroke-width="1.14286" stroke-linecap="round" stroke-linejoin="round"/>
</g>
<defs>
<clipPath id="clip0_3489_1889">
<rect width="17" height="17" fill="white"/>
</clipPath>
</defs>
</svg>
