<svg width="30" height="30" viewBox="0 0 30 30" fill="none" xmlns="http://www.w3.org/2000/svg">
<g opacity="0.22" filter="url(#filter0_d_136_5)">
<rect x="4" y="3" width="22" height="22" rx="1" fill="url(#paint0_linear_136_5)"/>
</g>
<path d="M9.21 17.285C9.14 17.285 9.085 17.265 9.045 17.225C9.005 17.195 9.005 17.17 9.045 17.15C9.265 17.11 9.455 17.03 9.615 16.91C9.775 16.78 9.905 16.62 10.005 16.43C10.215 16.08 10.42 15.73 10.62 15.38C10.83 15.02 11.03 14.66 11.22 14.3C11.45 13.86 11.685 13.42 11.925 12.98C12.165 12.53 12.405 12.085 12.645 11.645C12.875 11.235 13.08 10.84 13.26 10.46C13.44 10.08 13.575 9.805 13.665 9.635C13.735 9.505 13.855 9.39 14.025 9.29C14.205 9.18 14.38 9.095 14.55 9.035C14.49 9.035 14.43 9.035 14.37 9.035C14.31 9.025 14.245 9.02 14.175 9.02C13.865 9.02 13.525 9.04 13.155 9.08C12.795 9.11 12.44 9.16 12.09 9.23C11.75 9.3 11.45 9.395 11.19 9.515C10.93 9.635 10.755 9.78 10.665 9.95C10.625 10.04 10.59 10.13 10.56 10.22C10.53 10.31 10.515 10.4 10.515 10.49C10.515 10.72 10.595 10.885 10.755 10.985C10.765 10.985 10.77 10.995 10.77 11.015C10.77 11.035 10.75 11.055 10.71 11.075C10.68 11.095 10.655 11.1 10.635 11.09C10.535 11.04 10.42 10.92 10.29 10.73C10.17 10.53 10.09 10.365 10.05 10.235C10.02 10.115 10.005 10.005 10.005 9.905C10.005 9.645 10.09 9.445 10.26 9.305C10.43 9.155 10.645 9.05 10.905 8.99C11.165 8.92 11.43 8.88 11.7 8.87C11.98 8.85 12.225 8.84 12.435 8.84C12.755 8.84 13.135 8.84 13.575 8.84C14.015 8.83 14.42 8.825 14.79 8.825C14.88 8.825 14.98 8.825 15.09 8.825C15.2 8.815 15.315 8.81 15.435 8.81C15.705 8.81 15.985 8.825 16.275 8.855C16.565 8.885 16.83 8.95 17.07 9.05C17.31 9.15 17.495 9.305 17.625 9.515C17.825 9.825 17.925 10.155 17.925 10.505C17.925 10.895 17.81 11.265 17.58 11.615C17.36 11.955 17.08 12.255 16.74 12.515C16.4 12.775 16.055 12.975 15.705 13.115C15.375 13.245 15.005 13.335 14.595 13.385C14.195 13.435 13.835 13.46 13.515 13.46C13.415 13.46 13.315 13.46 13.215 13.46C13.125 13.45 13.045 13.44 12.975 13.43C12.955 13.43 12.945 13.42 12.945 13.4C12.945 13.36 12.985 13.305 13.065 13.235C13.145 13.155 13.21 13.12 13.26 13.13C13.34 13.14 13.42 13.145 13.5 13.145C13.58 13.145 13.665 13.145 13.755 13.145C14.135 13.145 14.54 13.095 14.97 12.995C15.4 12.895 15.795 12.705 16.155 12.425C16.525 12.135 16.805 11.715 16.995 11.165C17.045 11.045 17.075 10.925 17.085 10.805C17.105 10.675 17.115 10.55 17.115 10.43C17.115 10.09 17.03 9.79 16.86 9.53C16.69 9.27 16.445 9.12 16.125 9.08C16.085 9.07 16.04 9.065 15.99 9.065C15.94 9.065 15.89 9.065 15.84 9.065C15.65 9.065 15.44 9.09 15.21 9.14C14.99 9.19 14.825 9.285 14.715 9.425C14.465 9.755 14.225 10.13 13.995 10.55C13.765 10.96 13.545 11.38 13.335 11.81C13.125 12.23 12.925 12.625 12.735 12.995C12.685 13.095 12.59 13.275 12.45 13.535C12.31 13.785 12.155 14.075 11.985 14.405C11.815 14.725 11.655 15.045 11.505 15.365C11.355 15.685 11.235 15.97 11.145 16.22C11.065 16.47 11.045 16.64 11.085 16.73C11.095 16.74 11.1 16.755 11.1 16.775C11.1 16.805 11.085 16.82 11.055 16.82C10.975 16.82 10.895 16.8 10.815 16.76C10.735 16.72 10.64 16.7 10.53 16.7C10.43 16.7 10.33 16.725 10.23 16.775C10.13 16.815 10 16.89 9.84 17C9.68 17.11 9.5 17.2 9.3 17.27C9.28 17.28 9.25 17.285 9.21 17.285ZM15.4202 19.505C15.1102 19.505 14.8152 19.415 14.5352 19.235C14.2552 19.055 14.0452 18.785 13.9052 18.425C13.8552 18.295 13.8252 18.155 13.8152 18.005C13.7952 17.865 13.7852 17.725 13.7852 17.585C13.7852 17.445 13.8102 17.375 13.8602 17.375C13.9102 17.375 13.9352 17.415 13.9352 17.495C13.9352 17.965 14.0552 18.32 14.2952 18.56C14.5252 18.8 14.8202 18.92 15.1802 18.92C15.5302 18.92 15.8702 18.82 16.2002 18.62C16.5202 18.42 16.8202 18.165 17.1002 17.855C17.5702 17.345 17.9952 16.765 18.3752 16.115C18.7652 15.455 19.1152 14.775 19.4252 14.075C19.5052 13.905 19.6202 13.635 19.7702 13.265C19.9202 12.885 20.0852 12.475 20.2652 12.035C20.4452 11.585 20.6202 11.18 20.7902 10.82C20.9402 10.48 21.0652 10.21 21.1652 10.01C21.2752 9.81 21.4202 9.64 21.6002 9.5C21.7802 9.36 22.0502 9.22 22.4102 9.08C22.2502 9.09 22.1002 9.105 21.9602 9.125C21.8202 9.135 21.7102 9.14 21.6302 9.14C21.2502 9.15 20.8702 9.175 20.4902 9.215C20.1102 9.255 19.7702 9.33 19.4702 9.44C19.1702 9.54 18.9552 9.685 18.8252 9.875C18.7352 10.005 18.6902 10.155 18.6902 10.325C18.6902 10.495 18.7352 10.66 18.8252 10.82C18.9152 10.98 19.0302 11.095 19.1702 11.165C19.1902 11.185 19.2002 11.2 19.2002 11.21C19.2002 11.23 19.1752 11.255 19.1252 11.285C19.0852 11.305 19.0402 11.31 18.9902 11.3C18.9102 11.25 18.8102 11.17 18.6902 11.06C18.5702 10.94 18.4602 10.815 18.3602 10.685C18.2702 10.555 18.2102 10.445 18.1802 10.355C18.1402 10.235 18.1202 10.115 18.1202 9.995C18.1202 9.755 18.2052 9.56 18.3752 9.41C18.5552 9.26 18.7852 9.145 19.0652 9.065C19.3452 8.985 19.6452 8.93 19.9652 8.9C20.2952 8.86 20.6102 8.84 20.9102 8.84C21.2202 8.83 21.4852 8.825 21.7052 8.825H23.3252C23.3452 8.825 23.3552 8.83 23.3552 8.84C23.3552 8.87 23.3202 8.915 23.2502 8.975C23.1902 9.025 23.1502 9.05 23.1302 9.05C22.8502 9.06 22.6002 9.165 22.3802 9.365C22.1702 9.565 21.9852 9.795 21.8252 10.055C21.6752 10.305 21.5502 10.535 21.4502 10.745C21.3902 10.865 21.2952 11.06 21.1652 11.33C21.0452 11.59 20.9102 11.89 20.7602 12.23C20.6202 12.56 20.4752 12.89 20.3252 13.22C20.1852 13.55 20.0602 13.835 19.9502 14.075C19.6902 14.675 19.4452 15.235 19.2152 15.755C18.9952 16.265 18.7502 16.745 18.4802 17.195C18.2102 17.645 17.8752 18.085 17.4752 18.515C17.2252 18.785 16.9102 19.015 16.5302 19.205C16.1402 19.405 15.7702 19.505 15.4202 19.505Z" fill="white"/>
<defs>
<filter id="filter0_d_136_5" x="0" y="0" width="30" height="30" filterUnits="userSpaceOnUse" color-interpolation-filters="sRGB">
<feFlood flood-opacity="0" result="BackgroundImageFix"/>
<feColorMatrix in="SourceAlpha" type="matrix" values="0 0 0 0 0 0 0 0 0 0 0 0 0 0 0 0 0 0 127 0" result="hardAlpha"/>
<feOffset dy="1"/>
<feGaussianBlur stdDeviation="2"/>
<feComposite in2="hardAlpha" operator="out"/>
<feColorMatrix type="matrix" values="0 0 0 0 0.956667 0 0 0 0 0.956667 0 0 0 0 0.956667 0 0 0 0.25 0"/>
<feBlend mode="normal" in2="BackgroundImageFix" result="effect1_dropShadow_136_5"/>
<feBlend mode="normal" in="SourceGraphic" in2="effect1_dropShadow_136_5" result="shape"/>
</filter>
<linearGradient id="paint0_linear_136_5" x1="4" y1="3.35788" x2="26" y2="24.6421" gradientUnits="userSpaceOnUse">
<stop offset="0.135" stop-color="#C45E60"/>
<stop offset="1" stop-color="#990205"/>
</linearGradient>
</defs>
</svg>
