<svg width="16" height="16" viewBox="0 0 16 16" fill="none" xmlns="http://www.w3.org/2000/svg">
<path d="M12.6256 9.63432L10.0654 8.35422C10.0151 8.32911 9.95893 8.31774 9.90274 8.32125C9.84655 8.32476 9.79228 8.34304 9.74541 8.37423L8.41412 9.26229C7.6823 8.91134 7.09215 8.32118 6.74119 7.58937L7.62926 6.25807C7.66045 6.2112 7.67872 6.15693 7.68223 6.10074C7.68574 6.04455 7.67437 5.98843 7.64926 5.93804L6.36916 3.37785C6.34261 3.32441 6.30164 3.27946 6.25089 3.24808C6.20013 3.21669 6.14162 3.20012 6.08194 3.20024C5.31806 3.20024 4.58547 3.50369 4.04532 4.04384C3.50518 4.58398 3.20173 5.31657 3.20173 6.08045C3.20363 7.86226 3.9123 9.57054 5.17222 10.8305C6.43215 12.0904 8.14043 12.7991 9.92223 12.801C10.6861 12.801 11.4187 12.4975 11.9588 11.9574C12.499 11.4172 12.8024 10.6846 12.8024 9.92074C12.8025 9.86129 12.786 9.803 12.7547 9.75241C12.7235 9.70182 12.6788 9.66093 12.6256 9.63432ZM9.92223 12.1609C8.31011 12.1592 6.76451 11.5181 5.62457 10.3781C4.48463 9.23817 3.84347 7.69257 3.84177 6.08045C3.84168 5.51978 4.05184 4.97945 4.43074 4.56618C4.80964 4.15291 5.32975 3.89675 5.88833 3.84829L6.99241 6.05725L6.11234 7.38055C6.08301 7.42421 6.06489 7.47443 6.05959 7.52676C6.05429 7.57909 6.06196 7.63192 6.08194 7.68057C6.50713 8.69141 7.31127 9.49555 8.32211 9.92074C8.37081 9.94098 8.42375 9.94886 8.47624 9.9437C8.52872 9.93853 8.57911 9.92048 8.62293 9.89114L9.94623 9.01107L12.1552 10.1152C12.1065 10.6737 11.8502 11.1938 11.4368 11.5725C11.0233 11.9513 10.4829 12.1612 9.92223 12.1609ZM8.00209 1.38223e-07C6.60925 -0.000258732 5.24048 0.363106 4.03116 1.05415C2.82184 1.7452 1.81388 2.73998 1.10699 3.9401C0.400087 5.14022 0.0187424 6.50409 0.000673415 7.89681C-0.0173956 9.28953 0.328437 10.6628 1.00396 11.8809L0.0518908 14.7363C-0.00452267 14.9055 -0.0127095 15.087 0.0282478 15.2605C0.0692051 15.4341 0.157688 15.5928 0.283779 15.7189C0.40987 15.845 0.568586 15.9335 0.742138 15.9744C0.915691 16.0154 1.09722 16.0072 1.26638 15.9508L4.12179 14.9987C5.18992 15.5906 6.37934 15.93 7.59894 15.9912C8.81854 16.0523 10.0359 15.8334 11.1579 15.3513C12.2798 14.8693 13.2765 14.1368 14.0716 13.21C14.8667 12.2832 15.4391 11.1867 15.745 10.0044C16.0508 8.82224 16.082 7.58571 15.8361 6.38959C15.5902 5.19347 15.0738 4.06951 14.3264 3.10382C13.579 2.13813 12.6205 1.35634 11.5243 0.818338C10.428 0.280338 9.22321 0.000409658 8.00209 1.38223e-07ZM8.00209 15.3611C6.70796 15.3615 5.43661 15.0207 4.31621 14.3731C4.26752 14.345 4.21238 14.3302 4.1562 14.3299C4.12164 14.3298 4.08731 14.3355 4.05459 14.3467L1.06397 15.3435C1.00758 15.3624 0.94707 15.3651 0.889219 15.3514C0.831368 15.3378 0.778463 15.3083 0.736432 15.2663C0.694402 15.2242 0.664908 15.1713 0.651255 15.1135C0.637603 15.0556 0.640332 14.9951 0.659136 14.9387L1.65601 11.9481C1.67039 11.9051 1.67547 11.8595 1.67092 11.8144C1.66637 11.7693 1.65229 11.7257 1.62961 11.6865C0.81811 10.2838 0.492207 8.65246 0.702458 7.04562C0.912709 5.43879 1.64736 3.94626 2.79244 2.79956C3.93753 1.65287 5.42903 0.91612 7.03556 0.703611C8.6421 0.491101 10.2739 0.814711 11.6777 1.62424C13.0816 2.43376 14.179 3.68395 14.7998 5.18085C15.4206 6.67776 15.5301 8.33769 15.1112 9.90315C14.6923 11.4686 13.7685 12.8521 12.4832 13.8389C11.1978 14.8258 9.62262 15.3609 8.00209 15.3611Z" fill="white"/>
</svg>
