<svg width="16" height="16" viewBox="0 0 16 16" fill="none" xmlns="http://www.w3.org/2000/svg">
<g clip-path="url(#clip0_3489_1882)">
<path d="M6.93333 5.8667L7.2288 5.42297C7.14849 5.36952 7.05518 5.33886 6.95882 5.33425C6.86246 5.32964 6.76665 5.35125 6.6816 5.39679C6.59655 5.44232 6.52544 5.51007 6.47586 5.59283C6.42627 5.67558 6.40005 5.77023 6.4 5.8667H6.93333ZM6.93333 10.1334H6.4C6.40005 10.2298 6.42627 10.3245 6.47586 10.4072C6.52544 10.49 6.59655 10.5577 6.6816 10.6033C6.76665 10.6488 6.86246 10.6704 6.95882 10.6658C7.05518 10.6612 7.14849 10.6305 7.2288 10.5771L6.93333 10.1334ZM10.1333 8.00003L10.4288 8.44377C10.5018 8.39506 10.5617 8.32908 10.6032 8.25167C10.6446 8.17426 10.6663 8.08783 10.6663 8.00003C10.6663 7.91224 10.6446 7.8258 10.6032 7.7484C10.5617 7.67099 10.5018 7.605 10.4288 7.5563L10.1333 8.00003ZM1.80254e-08 3.87843V12.1216H1.06667V3.87843H1.80254e-08ZM16 12.1216V3.87843H14.9333V12.1216H16ZM1.6064 14.1088C5.8208 15.0123 10.1792 15.0123 14.3936 14.1088L14.1696 13.0656C10.1027 13.9371 5.89731 13.9371 1.8304 13.0656L1.6064 14.1088ZM14.3936 1.89123C10.179 0.988079 5.82096 0.988079 1.6064 1.89123L1.8304 2.93443C5.89731 2.06302 10.1027 2.06302 14.1696 2.93443L14.3936 1.89123ZM16 3.87843C16 2.92057 15.3301 2.09177 14.3936 1.89123L14.1696 2.93443C14.6155 3.03043 14.9333 3.42297 14.9333 3.87843H16ZM14.9333 12.1216C14.9333 12.3426 14.8575 12.5569 14.7185 12.7288C14.5795 12.9006 14.3857 13.0195 14.1696 13.0656L14.3936 14.1088C14.8483 14.0114 15.2559 13.761 15.5483 13.3993C15.8406 13.0377 16.0001 12.5867 16 12.1216H14.9333ZM1.80254e-08 12.1216C1.80254e-08 13.0795 0.669867 13.9083 1.6064 14.1088L1.8304 13.0656C1.61427 13.0195 1.42052 12.9006 1.28152 12.7288C1.14252 12.5569 1.06668 12.3426 1.06667 12.1216H1.80254e-08ZM1.06667 3.87843C1.06667 3.42297 1.38453 3.02937 1.8304 2.93443L1.6064 1.89123C1.15167 1.98864 0.744105 2.23907 0.45175 2.60073C0.159395 2.96239 -6.18996e-05 3.41338 1.80254e-08 3.87843H1.06667ZM6.4 5.8667V10.1334H7.46667V5.8667H6.4ZM7.2288 10.5771L10.4288 8.44377L9.83787 7.5563L6.63787 9.68963L7.2288 10.5771ZM10.4288 7.5563L7.2288 5.42297L6.63787 6.31043L9.83787 8.44377L10.4288 7.5563Z" fill="white"/>
</g>
<defs>
<clipPath id="clip0_3489_1882">
<rect width="16" height="16" fill="white"/>
</clipPath>
</defs>
</svg>
